<?xml version="1.0" encoding="utf-8"?>
<svg version="1.1" xmlns="http://www.w3.org/2000/svg" xmlns:xlink="http://www.w3.org/1999/xlink" viewBox="0 0 128 128" xml:space="preserve">
<g>
	<path d="M26.1,78.5l-1.8-5c-1.8-5-2.9-11.6-3.2-17.6c-0.6-15.4,5.2-31,15-40.8c4.7-4.7,10.3-8.2,16.2-10.2C57,3.4,61.2,2.5,64,2.5
		c2.8,0,7,0.9,11.7,2.4c5.9,2,11.4,5.5,16.1,10.2c9.8,9.8,15.6,25.5,15,40.8c-0.2,6-1.4,12.6-3.2,17.6l-1.8,5H26.1z M66.2,46.5
		c6.3,0,19.3,0,19.3-10.5s-13-10.5-19.3-10.5h-4.4c-6.3,0-19.3,0-19.3,10.5c0,3.1,1.3,7.3,7.3,9.3c3.6,1.2,8.1,1.3,11.9,1.3l2.2,0
		L66.2,46.5z"/>
	<path d="M64,5c2.5,0,6.6,0.9,10.9,2.3c5.5,1.8,10.7,5.1,15.2,9.6c9.4,9.3,14.8,24.3,14.3,39c-0.2,5.8-1.3,12.1-3,16.8l-1.2,3.3
		H27.8l-1.2-3.3c-1.7-4.8-2.8-11.1-3-16.8c-0.5-14.7,4.9-29.7,14.3-39c4.4-4.4,9.7-7.7,15.2-9.6C57.4,5.9,61.5,5,64,5 M64,23l-1.1,0
		l-1.2,0c-4.1,0-8.8,0.1-12.7,1.4C41.2,26.9,40,32.7,40,36c0,3.3,1.2,9.1,9.1,11.6c4,1.3,8.6,1.4,12.7,1.4l1.2,0l1.1,0l1.1,0l1.2,0
		c4.1,0,8.8-0.1,12.7-1.4C86.8,45.1,88,39.3,88,36c0-3.3-1.2-9.1-9.1-11.6c-4-1.3-8.6-1.4-12.7-1.4c0,0,0,0,0,0l-1.2,0L64,23 M64,0
		c-3.5,0-8.3,1.2-12.5,2.6c-6.3,2.1-12.2,5.8-17.1,10.8C23.9,23.8,18.1,40.2,18.6,56c0.2,5.9,1.4,12.8,3.3,18.3l2.4,6.7h79.4
		l2.4-6.7c1.9-5.5,3.1-12.4,3.3-18.3c0.6-15.8-5.3-32.2-15.8-42.7C88.7,8.4,82.8,4.7,76.5,2.6C72.4,1.2,67.5,0,64,0L64,0z M64,28
		c0.7,0,1.5,0,2.2,0c7.5,0,16.8,0.4,16.8,8c0,7.6-9.3,8-16.8,8c-0.8,0-1.5,0-2.2,0c-0.7,0-1.5,0-2.2,0C54.3,44,45,43.7,45,36
		c0-7.6,9.3-8,16.8-8C62.6,28,63.3,28,64,28L64,28z"/>
</g>
<g>
	<path d="M96,125.5l-6.6-13.3l-2.5,13.3H41.1l-2.5-13.3L32,125.5H2.6C3,117.9,5.1,94.9,17,81.3c0.5-0.5,1.1-0.8,1.8-0.8h90.3
		c0.7,0,1.4,0.3,1.8,0.8c11.9,13.6,14.1,36.6,14.4,44.2H96z"/>
	<path d="M109.1,83c10.2,11.7,12.9,30.9,13.6,40H97.6l-2.6-5.2l-6.6-13.3l-2.7,14.6l-0.7,3.9H43.1l-0.7-3.9l-2.7-14.6L33,117.8
		l-2.6,5.2l-25.2,0c0.7-9,3.4-28.3,13.6-40H109.1 M109.2,78H18.8c-1.4,0-2.8,0.6-3.7,1.7C0,97,0,128,0,128l33.5,0l4-8l1.5,8h50
		l1.5-8l4,8H128c0,0,0-31-15.1-48.3C111.9,78.6,110.6,78,109.2,78L109.2,78z"/>
</g>
</svg>
